<svg width="380" height="110" viewBox="0 0 380 110" fill="none" xmlns="http://www.w3.org/2000/svg">
<g filter="url(#filter0_d)">
<path d="M143.967 39.1548L140.592 43.3398C142.482 42.3948 144.507 41.6748 146.667 41.1798C148.872 40.6398 151.234 40.3698 153.754 40.3698C157.444 40.3698 161.022 40.9773 164.487 42.1923C167.997 43.4073 171.079 45.2523 173.734 47.7273C176.389 50.1573 178.527 53.1948 180.147 56.8398C181.767 60.4848 182.577 64.7373 182.577 69.5973C182.577 74.1423 181.744 78.4173 180.079 82.4223C178.414 86.3823 176.074 89.8473 173.059 92.8173C170.044 95.7873 166.399 98.1273 162.124 99.8373C157.894 101.547 153.214 102.402 148.084 102.402C142.864 102.402 138.184 101.57 134.044 99.9048C129.904 98.2398 126.372 95.9223 123.447 92.9523C120.522 89.9373 118.272 86.3373 116.697 82.1523C115.167 77.9223 114.402 73.2423 114.402 68.1123C114.402 63.5223 115.324 58.8198 117.169 54.0048C119.059 49.1448 121.962 44.1048 125.877 38.8848L149.164 7.63226C149.974 6.55226 151.144 5.62976 152.674 4.86476C154.249 4.09976 156.049 3.71726 158.074 3.71726H172.924L143.967 39.1548ZM147.747 88.7673C150.402 88.7673 152.832 88.3173 155.037 87.4173C157.287 86.5173 159.199 85.2573 160.774 83.6373C162.394 82.0173 163.654 80.1273 164.554 77.9673C165.454 75.7623 165.904 73.3773 165.904 70.8123C165.904 68.0223 165.477 65.5248 164.622 63.3198C163.767 61.0698 162.552 59.1798 160.977 57.6498C159.402 56.0748 157.512 54.8823 155.307 54.0723C153.102 53.2623 150.672 52.8573 148.017 52.8573C145.362 52.8573 142.954 53.3073 140.794 54.2073C138.634 55.1073 136.789 56.3673 135.259 57.9873C133.729 59.5623 132.537 61.4523 131.682 63.6573C130.827 65.8173 130.399 68.1573 130.399 70.6773C130.399 73.3773 130.759 75.8523 131.479 78.1023C132.244 80.3073 133.347 82.1973 134.787 83.7723C136.272 85.3473 138.094 86.5848 140.254 87.4848C142.414 88.3398 144.912 88.7673 147.747 88.7673ZM261.967 52.5198C261.967 61.0248 261.045 68.4273 259.2 74.7273C257.4 80.9823 254.88 86.1573 251.64 90.2523C248.445 94.3473 244.642 97.4073 240.232 99.4323C235.867 101.412 231.142 102.402 226.057 102.402C220.972 102.402 216.247 101.412 211.882 99.4323C207.562 97.4073 203.805 94.3473 200.61 90.2523C197.415 86.1573 194.917 80.9823 193.117 74.7273C191.317 68.4273 190.417 61.0248 190.417 52.5198C190.417 43.9698 191.317 36.5673 193.117 30.3123C194.917 24.0573 197.415 18.8823 200.61 14.7873C203.805 10.6923 207.562 7.65476 211.882 5.67476C216.247 3.64976 220.972 2.63726 226.057 2.63726C231.142 2.63726 235.867 3.64976 240.232 5.67476C244.642 7.65476 248.445 10.6923 251.64 14.7873C254.88 18.8823 257.4 24.0573 259.2 30.3123C261.045 36.5673 261.967 43.9698 261.967 52.5198ZM244.755 52.5198C244.755 45.4548 244.237 39.6048 243.202 34.9698C242.167 30.3348 240.772 26.6448 239.017 23.8998C237.307 21.1548 235.327 19.2423 233.077 18.1623C230.827 17.0373 228.487 16.4748 226.057 16.4748C223.672 16.4748 221.355 17.0373 219.105 18.1623C216.9 19.2423 214.942 21.1548 213.232 23.8998C211.522 26.6448 210.15 30.3348 209.115 34.9698C208.125 39.6048 207.63 45.4548 207.63 52.5198C207.63 59.5848 208.125 65.4348 209.115 70.0698C210.15 74.7048 211.522 78.3948 213.232 81.1398C214.942 83.8848 216.9 85.8198 219.105 86.9448C221.355 88.0248 223.672 88.5648 226.057 88.5648C228.487 88.5648 230.827 88.0248 233.077 86.9448C235.327 85.8198 237.307 83.8848 239.017 81.1398C240.772 78.3948 242.167 74.7048 243.202 70.0698C244.237 65.4348 244.755 59.5848 244.755 52.5198ZM295.153 57.4823C295.153 59.6689 294.779 61.6423 294.033 63.4023C293.313 65.1623 292.339 66.6689 291.113 67.9223C289.886 69.1489 288.459 70.0956 286.833 70.7623C285.206 71.4289 283.513 71.7623 281.753 71.7623C279.833 71.7623 278.059 71.4289 276.433 70.7623C274.806 70.0956 273.393 69.1489 272.193 67.9223C271.019 66.6689 270.099 65.1623 269.433 63.4023C268.766 61.6423 268.433 59.6689 268.433 57.4823C268.433 55.2423 268.766 53.2156 269.433 51.4023C270.099 49.5889 271.019 48.0556 272.193 46.8023C273.393 45.5489 274.806 44.5889 276.433 43.9223C278.059 43.2289 279.833 42.8823 281.753 42.8823C283.673 42.8823 285.446 43.2289 287.073 43.9223C288.726 44.5889 290.153 45.5489 291.353 46.8023C292.553 48.0556 293.486 49.5889 294.153 51.4023C294.819 53.2156 295.153 55.2423 295.153 57.4823ZM287.553 57.4823C287.553 55.9356 287.393 54.6423 287.073 53.6023C286.779 52.5623 286.366 51.7223 285.833 51.0823C285.326 50.4423 284.713 49.9889 283.993 49.7223C283.299 49.4289 282.553 49.2823 281.753 49.2823C280.953 49.2823 280.206 49.4289 279.513 49.7223C278.819 49.9889 278.219 50.4423 277.713 51.0823C277.233 51.7223 276.846 52.5623 276.553 53.6023C276.259 54.6423 276.113 55.9356 276.113 57.4823C276.113 58.9756 276.259 60.2289 276.553 61.2423C276.846 62.2289 277.233 63.0289 277.713 63.6423C278.219 64.2556 278.819 64.6956 279.513 64.9623C280.206 65.2289 280.953 65.3623 281.753 65.3623C282.553 65.3623 283.299 65.2289 283.993 64.9623C284.713 64.6956 285.326 64.2556 285.833 63.6423C286.366 63.0289 286.779 62.2289 287.073 61.2423C287.393 60.2289 287.553 58.9756 287.553 57.4823ZM314.393 45.0423C314.739 44.6423 315.139 44.2823 315.593 43.9623C316.073 43.6423 316.739 43.4823 317.593 43.4823H324.793L281.833 99.8423C281.486 100.269 281.073 100.629 280.593 100.922C280.113 101.189 279.526 101.322 278.833 101.322H271.473L314.393 45.0423ZM327.833 87.7223C327.833 89.9089 327.459 91.8823 326.713 93.6423C325.993 95.4023 325.019 96.9089 323.793 98.1623C322.566 99.3889 321.139 100.349 319.513 101.042C317.886 101.709 316.193 102.042 314.433 102.042C312.513 102.042 310.739 101.709 309.113 101.042C307.486 100.349 306.073 99.3889 304.873 98.1623C303.699 96.9089 302.779 95.4023 302.113 93.6423C301.446 91.8823 301.113 89.9089 301.113 87.7223C301.113 85.4823 301.446 83.4556 302.113 81.6423C302.779 79.8289 303.699 78.2956 304.873 77.0423C306.073 75.7889 307.486 74.8289 309.113 74.1623C310.739 73.4689 312.513 73.1223 314.433 73.1223C316.353 73.1223 318.126 73.4689 319.753 74.1623C321.406 74.8289 322.819 75.7889 323.993 77.0423C325.193 78.2956 326.126 79.8289 326.793 81.6423C327.486 83.4556 327.833 85.4823 327.833 87.7223ZM320.193 87.7223C320.193 86.1756 320.046 84.8823 319.753 83.8423C319.459 82.8023 319.046 81.9623 318.513 81.3223C318.006 80.6823 317.393 80.2289 316.673 79.9623C315.979 79.6689 315.233 79.5223 314.433 79.5223C313.633 79.5223 312.886 79.6689 312.193 79.9623C311.499 80.2289 310.899 80.6823 310.393 81.3223C309.886 81.9623 309.486 82.8023 309.193 83.8423C308.926 84.8823 308.793 86.1756 308.793 87.7223C308.793 89.2156 308.926 90.4689 309.193 91.4823C309.486 92.4956 309.886 93.3089 310.393 93.9223C310.899 94.5356 311.499 94.9756 312.193 95.2423C312.886 95.5089 313.633 95.6423 314.433 95.6423C315.233 95.6423 315.979 95.5089 316.673 95.2423C317.393 94.9756 318.006 94.5356 318.513 93.9223C319.046 93.3089 319.459 92.4956 319.753 91.4823C320.046 90.4689 320.193 89.2156 320.193 87.7223Z" fill="white"/>
</g>
<g filter="url(#filter1_d)">
<path d="M340.279 79.1823V87.7423H351.119V92.0423H340.279V103.822H334.879V74.9023H353.119V79.1823H340.279ZM362.936 79.1823V87.7423H373.776V92.0423H362.936V103.822H357.536V74.9023H375.776V79.1823H362.936Z" fill="white"/>
</g>
<g filter="url(#filter2_d)">
<path d="M13.992 63.3503C14.824 63.3503 15.5653 63.2116 16.216 62.9343C16.8773 62.6569 17.432 62.2676 17.88 61.7663C18.328 61.2649 18.6693 60.6569 18.904 59.9423C19.1493 59.2276 19.272 58.4276 19.272 57.5423V43.6863H23.576V57.5423C23.576 58.9183 23.352 60.1929 22.904 61.3663C22.4667 62.5289 21.832 63.5369 21 64.3903C20.1787 65.2329 19.176 65.8943 17.992 66.3743C16.808 66.8436 15.4747 67.0783 13.992 67.0783C12.4987 67.0783 11.16 66.8436 9.976 66.3743C8.792 65.8943 7.784 65.2329 6.952 64.3903C6.13067 63.5369 5.496 62.5289 5.048 61.3663C4.61067 60.1929 4.392 58.9183 4.392 57.5423V43.6863H8.696V57.5263C8.696 58.4116 8.81334 59.2116 9.048 59.9263C9.29334 60.6409 9.64 61.2543 10.088 61.7663C10.5467 62.2676 11.1013 62.6569 11.752 62.9343C12.4133 63.2116 13.16 63.3503 13.992 63.3503ZM35.95 55.3183C36.7393 55.3183 37.4273 55.2223 38.014 55.0303C38.6007 54.8276 39.086 54.5449 39.47 54.1823C39.8647 53.8089 40.158 53.3609 40.35 52.8383C40.542 52.3049 40.638 51.7129 40.638 51.0623C40.638 50.4436 40.542 49.8836 40.35 49.3823C40.158 48.8809 39.87 48.4543 39.486 48.1023C39.102 47.7503 38.6167 47.4836 38.03 47.3023C37.4433 47.1103 36.75 47.0143 35.95 47.0143H32.734V55.3183H35.95ZM35.95 43.6863C37.4967 43.6863 38.8353 43.8676 39.966 44.2303C41.0967 44.5929 42.03 45.0996 42.766 45.7503C43.502 46.4009 44.046 47.1796 44.398 48.0863C44.7607 48.9929 44.942 49.9849 44.942 51.0623C44.942 52.1823 44.7553 53.2116 44.382 54.1503C44.0087 55.0783 43.4487 55.8783 42.702 56.5503C41.9553 57.2223 41.0167 57.7449 39.886 58.1183C38.766 58.4916 37.454 58.6783 35.95 58.6783H32.734V66.8223H28.43V43.6863H35.95ZM64.4025 47.2223H57.4265V66.8223H53.1225V47.2223H46.1465V43.6863H64.4025V47.2223ZM88.7128 55.2543C88.7128 56.9503 88.4301 58.5236 87.8648 59.9743C87.3101 61.4143 86.5208 62.6623 85.4968 63.7183C84.4728 64.7743 83.2408 65.6009 81.8008 66.1983C80.3608 66.7849 78.7608 67.0783 77.0008 67.0783C75.2514 67.0783 73.6568 66.7849 72.2168 66.1983C70.7768 65.6009 69.5394 64.7743 68.5048 63.7183C67.4808 62.6623 66.6861 61.4143 66.1208 59.9743C65.5554 58.5236 65.2728 56.9503 65.2728 55.2543C65.2728 53.5583 65.5554 51.9903 66.1208 50.5503C66.6861 49.0996 67.4808 47.8463 68.5048 46.7903C69.5394 45.7343 70.7768 44.9129 72.2168 44.3263C73.6568 43.7289 75.2514 43.4303 77.0008 43.4303C78.1741 43.4303 79.2781 43.5689 80.3128 43.8463C81.3474 44.1129 82.2968 44.4969 83.1608 44.9983C84.0248 45.4889 84.7981 46.0916 85.4808 46.8063C86.1741 47.5103 86.7608 48.2996 87.2408 49.1743C87.7208 50.0489 88.0834 50.9983 88.3288 52.0223C88.5848 53.0463 88.7128 54.1236 88.7128 55.2543ZM84.3128 55.2543C84.3128 53.9849 84.1421 52.8489 83.8008 51.8463C83.4594 50.8329 82.9741 49.9743 82.3448 49.2703C81.7154 48.5663 80.9474 48.0276 80.0408 47.6543C79.1448 47.2809 78.1314 47.0943 77.0008 47.0943C75.8701 47.0943 74.8514 47.2809 73.9448 47.6543C73.0488 48.0276 72.2808 48.5663 71.6408 49.2703C71.0114 49.9743 70.5261 50.8329 70.1848 51.8463C69.8434 52.8489 69.6728 53.9849 69.6728 55.2543C69.6728 56.5236 69.8434 57.6649 70.1848 58.6783C70.5261 59.6809 71.0114 60.5343 71.6408 61.2383C72.2808 61.9316 73.0488 62.4649 73.9448 62.8383C74.8514 63.2116 75.8701 63.3983 77.0008 63.3983C78.1314 63.3983 79.1448 63.2116 80.0408 62.8383C80.9474 62.4649 81.7154 61.9316 82.3448 61.2383C82.9741 60.5343 83.4594 59.6809 83.8008 58.6783C84.1421 57.6649 84.3128 56.5236 84.3128 55.2543Z" fill="white"/>
</g>
<defs>
<filter id="filter0_d" x="110.402" y="0.637207" width="221.431" height="107.765" filterUnits="userSpaceOnUse" color-interpolation-filters="sRGB">
<feFlood flood-opacity="0" result="BackgroundImageFix"/>
<feColorMatrix in="SourceAlpha" type="matrix" values="0 0 0 0 0 0 0 0 0 0 0 0 0 0 0 0 0 0 127 0"/>
<feOffset dy="2"/>
<feGaussianBlur stdDeviation="2"/>
<feColorMatrix type="matrix" values="0 0 0 0 0 0 0 0 0 0 0 0 0 0 0 0 0 0 0.09 0"/>
<feBlend mode="normal" in2="BackgroundImageFix" result="effect1_dropShadow"/>
<feBlend mode="normal" in="SourceGraphic" in2="effect1_dropShadow" result="shape"/>
</filter>
<filter id="filter1_d" x="330.879" y="72.9023" width="48.8963" height="36.92" filterUnits="userSpaceOnUse" color-interpolation-filters="sRGB">
<feFlood flood-opacity="0" result="BackgroundImageFix"/>
<feColorMatrix in="SourceAlpha" type="matrix" values="0 0 0 0 0 0 0 0 0 0 0 0 0 0 0 0 0 0 127 0"/>
<feOffset dy="2"/>
<feGaussianBlur stdDeviation="2"/>
<feColorMatrix type="matrix" values="0 0 0 0 0 0 0 0 0 0 0 0 0 0 0 0 0 0 0.09 0"/>
<feBlend mode="normal" in2="BackgroundImageFix" result="effect1_dropShadow"/>
<feBlend mode="normal" in="SourceGraphic" in2="effect1_dropShadow" result="shape"/>
</filter>
<filter id="filter2_d" x="0.391968" y="41.4302" width="92.3208" height="31.648" filterUnits="userSpaceOnUse" color-interpolation-filters="sRGB">
<feFlood flood-opacity="0" result="BackgroundImageFix"/>
<feColorMatrix in="SourceAlpha" type="matrix" values="0 0 0 0 0 0 0 0 0 0 0 0 0 0 0 0 0 0 127 0"/>
<feOffset dy="2"/>
<feGaussianBlur stdDeviation="2"/>
<feColorMatrix type="matrix" values="0 0 0 0 0 0 0 0 0 0 0 0 0 0 0 0 0 0 0.09 0"/>
<feBlend mode="normal" in2="BackgroundImageFix" result="effect1_dropShadow"/>
<feBlend mode="normal" in="SourceGraphic" in2="effect1_dropShadow" result="shape"/>
</filter>
</defs>
</svg>
