<svg width="403" height="132" viewBox="0 0 403 132" fill="none" xmlns="http://www.w3.org/2000/svg">
<g filter="url(#filter0_d)">
<path d="M43.9316 15.4095C43.5716 16.0395 43.1816 16.5045 42.7616 16.8045C42.3716 17.0745 41.8766 17.2095 41.2766 17.2095C40.6466 17.2095 39.9566 16.9845 39.2066 16.5345C38.4866 16.0545 37.6166 15.5295 36.5966 14.9595C35.5766 14.3895 34.3766 13.8795 32.9966 13.4295C31.6466 12.9495 30.0416 12.7095 28.1816 12.7095C26.5016 12.7095 25.0316 12.9195 23.7716 13.3395C22.5116 13.7295 21.4466 14.2845 20.5766 15.0045C19.7366 15.7245 19.1066 16.5945 18.6866 17.6145C18.2666 18.6045 18.0566 19.6995 18.0566 20.8995C18.0566 22.4295 18.4766 23.7045 19.3166 24.7245C20.1866 25.7445 21.3266 26.6145 22.7366 27.3345C24.1466 28.0545 25.7516 28.6995 27.5516 29.2695C29.3516 29.8395 31.1966 30.4545 33.0866 31.1145C34.9766 31.7445 36.8216 32.4945 38.6216 33.3645C40.4216 34.2045 42.0266 35.2845 43.4366 36.6045C44.8466 37.8945 45.9716 39.4845 46.8116 41.3745C47.6816 43.2645 48.1166 45.5595 48.1166 48.2595C48.1166 51.1995 47.6066 53.9595 46.5866 56.5395C45.5966 59.0895 44.1266 61.3245 42.1766 63.2445C40.2566 65.1345 37.9016 66.6345 35.1116 67.7445C32.3216 68.8245 29.1266 69.3645 25.5266 69.3645C23.4566 69.3645 21.4166 69.1545 19.4066 68.7345C17.3966 68.3445 15.4616 67.7745 13.6016 67.0245C11.7716 66.2745 10.0466 65.3745 8.42662 64.3245C6.80662 63.2745 5.36662 62.1045 4.10662 60.8145L7.66162 55.0095C7.96162 54.5895 8.35162 54.2445 8.83162 53.9745C9.31162 53.6745 9.82162 53.5245 10.3616 53.5245C11.1116 53.5245 11.9216 53.8395 12.7916 54.4695C13.6616 55.0695 14.6966 55.7445 15.8966 56.4945C17.0966 57.2445 18.4916 57.9345 20.0816 58.5645C21.7016 59.1645 23.6366 59.4645 25.8866 59.4645C29.3366 59.4645 32.0066 58.6545 33.8966 57.0345C35.7866 55.3845 36.7316 53.0295 36.7316 49.9695C36.7316 48.2595 36.2966 46.8645 35.4266 45.7845C34.5866 44.7045 33.4616 43.8045 32.0516 43.0845C30.6416 42.3345 29.0366 41.7045 27.2366 41.1945C25.4366 40.6845 23.6066 40.1295 21.7466 39.5295C19.8866 38.9295 18.0566 38.2095 16.2566 37.3695C14.4566 36.5295 12.8516 35.4345 11.4416 34.0845C10.0316 32.7345 8.89162 31.0545 8.02162 29.0445C7.18162 27.0045 6.76162 24.4995 6.76162 21.5295C6.76162 19.1595 7.22662 16.8495 8.15662 14.5995C9.11662 12.3495 10.4966 10.3545 12.2966 8.61453C14.0966 6.87453 16.3166 5.47953 18.9566 4.42953C21.5966 3.37953 24.6266 2.85453 28.0466 2.85453C31.8866 2.85453 35.4266 3.45453 38.6666 4.65453C41.9066 5.85453 44.6666 7.53453 46.9466 9.69453L43.9316 15.4095ZM84.8662 58.8795C87.2062 58.8795 89.2912 58.4895 91.1212 57.7095C92.9812 56.9295 94.5412 55.8345 95.8012 54.4245C97.0612 53.0145 98.0212 51.3045 98.6812 49.2945C99.3712 47.2845 99.7162 45.0345 99.7162 42.5445V3.57453H111.821V42.5445C111.821 46.4145 111.191 49.9995 109.931 53.2995C108.701 56.5695 106.916 59.4045 104.576 61.8045C102.266 64.1745 99.4462 66.0345 96.1162 67.3845C92.7862 68.7045 89.0362 69.3645 84.8662 69.3645C80.6662 69.3645 76.9012 68.7045 73.5712 67.3845C70.2412 66.0345 67.4062 64.1745 65.0662 61.8045C62.7562 59.4045 60.9712 56.5695 59.7112 53.2995C58.4812 49.9995 57.8662 46.4145 57.8662 42.5445V3.57453H69.9712V42.4995C69.9712 44.9895 70.3012 47.2395 70.9612 49.2495C71.6512 51.2595 72.6262 52.9845 73.8862 54.4245C75.1762 55.8345 76.7362 56.9295 78.5662 57.7095C80.4262 58.4895 82.5262 58.8795 84.8662 58.8795ZM196.033 3.57453V68.6445H185.368V26.6145C185.368 24.9345 185.458 23.1195 185.638 21.1695L165.973 58.1145C165.043 59.8845 163.618 60.7695 161.698 60.7695H159.988C158.068 60.7695 156.643 59.8845 155.713 58.1145L135.823 21.0345C135.913 22.0245 135.988 22.9995 136.048 23.9595C136.108 24.9195 136.138 25.8045 136.138 26.6145V68.6445H125.473V3.57453H134.608C135.148 3.57453 135.613 3.58953 136.003 3.61953C136.393 3.64953 136.738 3.72453 137.038 3.84453C137.368 3.96453 137.653 4.15953 137.893 4.42953C138.163 4.69953 138.418 5.05953 138.658 5.50953L158.143 41.6445C158.653 42.6045 159.118 43.5945 159.538 44.6145C159.988 45.6345 160.423 46.6845 160.843 47.7645C161.263 46.6545 161.698 45.5895 162.148 44.5695C162.598 43.5195 163.078 42.5145 163.588 41.5545L182.803 5.50953C183.043 5.05953 183.298 4.69953 183.568 4.42953C183.838 4.15953 184.123 3.96453 184.423 3.84453C184.753 3.72453 185.113 3.64953 185.503 3.61953C185.893 3.58953 186.358 3.57453 186.898 3.57453H196.033ZM281.111 3.57453V68.6445H270.446V26.6145C270.446 24.9345 270.536 23.1195 270.716 21.1695L251.051 58.1145C250.121 59.8845 248.696 60.7695 246.776 60.7695H245.066C243.146 60.7695 241.721 59.8845 240.791 58.1145L220.901 21.0345C220.991 22.0245 221.066 22.9995 221.126 23.9595C221.186 24.9195 221.216 25.8045 221.216 26.6145V68.6445H210.551V3.57453H219.686C220.226 3.57453 220.691 3.58953 221.081 3.61953C221.471 3.64953 221.816 3.72453 222.116 3.84453C222.446 3.96453 222.731 4.15953 222.971 4.42953C223.241 4.69953 223.496 5.05953 223.736 5.50953L243.221 41.6445C243.731 42.6045 244.196 43.5945 244.616 44.6145C245.066 45.6345 245.501 46.6845 245.921 47.7645C246.341 46.6545 246.776 45.5895 247.226 44.5695C247.676 43.5195 248.156 42.5145 248.666 41.5545L267.881 5.50953C268.121 5.05953 268.376 4.69953 268.646 4.42953C268.916 4.15953 269.201 3.96453 269.501 3.84453C269.831 3.72453 270.191 3.64953 270.581 3.61953C270.971 3.58953 271.436 3.57453 271.976 3.57453H281.111ZM307.779 13.2045V31.2495H330.549V40.5645H307.779V58.9695H336.669V68.6445H295.629V3.57453H336.669V13.2045H307.779ZM367.062 34.5345C369.342 34.5345 371.322 34.2495 373.002 33.6795C374.712 33.1095 376.107 32.3295 377.187 31.3395C378.297 30.3195 379.122 29.1195 379.662 27.7395C380.202 26.3595 380.472 24.8445 380.472 23.1945C380.472 19.8945 379.377 17.3595 377.187 15.5895C375.027 13.8195 371.712 12.9345 367.242 12.9345H359.502V34.5345H367.062ZM398.202 68.6445H387.267C385.197 68.6445 383.697 67.8345 382.767 66.2145L369.087 45.3795C368.577 44.5995 368.007 44.0445 367.377 43.7145C366.777 43.3845 365.877 43.2195 364.677 43.2195H359.502V68.6445H347.397V3.57453H367.242C371.652 3.57453 375.432 4.03953 378.582 4.96953C381.762 5.86953 384.357 7.14453 386.367 8.79453C388.407 10.4445 389.907 12.4245 390.867 14.7345C391.827 17.0145 392.307 19.5345 392.307 22.2945C392.307 24.4845 391.977 26.5545 391.317 28.5045C390.687 30.4545 389.757 32.2245 388.527 33.8145C387.327 35.4045 385.827 36.7995 384.027 37.9995C382.257 39.1995 380.232 40.1445 377.952 40.8345C378.732 41.2845 379.452 41.8245 380.112 42.4545C380.772 43.0545 381.372 43.7745 381.912 44.6145L398.202 68.6445Z" fill="white"/>
</g>
<path d="M155.567 100.577L147.357 102.207C142.282 103.01 138.828 103.391 136.994 103.349C135.207 103.244 133.573 103.06 132.092 102.796C130.665 102.524 129.496 102.128 128.583 101.608C126.346 100.412 125.027 98.5452 124.625 96.0074C124.506 95.2515 124.785 94.045 125.464 92.3879C126.143 90.7308 127.427 88.7012 129.316 86.2992C131.251 83.8346 133.612 81.441 136.399 79.1182C139.232 76.7329 143.075 74.4369 147.928 72.23C152.782 70.0232 158.161 68.342 164.066 67.1864C166.172 66.8532 168.429 66.773 170.836 66.9456C173.289 67.0557 175.326 67.3421 176.949 67.8049C178.626 68.2591 180.174 69.1212 181.592 70.3911C183.002 71.6071 183.857 73.16 184.156 75.0498C184.395 76.5617 183.193 78.4121 180.551 80.6013C177.619 83.0576 173.48 84.7086 168.134 85.5543C162.843 86.3914 160.137 86.432 160.018 85.6761C159.924 85.0822 161.352 84.1368 164.301 82.8399C167.305 81.5346 170.287 80.0942 173.248 78.5189C176.209 76.9435 177.582 75.4809 177.369 74.131C177.258 73.4291 176.014 73.266 173.639 73.6419C157.98 76.1191 145.176 82.2958 135.226 92.1718C133.368 94.0708 132.529 95.5873 132.708 96.7212C132.99 98.503 138.747 98.5055 149.978 96.7288C160.092 95.2394 165.567 97.1404 166.404 102.432C167.002 106.212 165.006 110.208 160.414 114.421C155.823 118.634 150.194 122.237 143.528 125.229C136.915 128.212 130.563 130.213 124.47 131.232C121.608 131.685 118.465 131.408 115.04 130.4C111.615 129.392 109.732 127.808 109.39 125.648C109.279 124.946 109.813 124.474 110.992 124.232C117.253 122.522 121.21 121.122 122.863 120.03C123.278 119.853 123.621 119.744 123.891 119.701C124.161 119.659 124.304 119.691 124.321 119.799C124.355 120.015 124.087 120.417 123.516 121.006C122.973 121.424 122.372 121.823 121.713 122.204C120.287 122.983 119.586 123.454 119.612 123.616C119.637 123.778 120.19 123.774 121.27 123.603C122.35 123.432 125.008 122.568 129.245 121.013C133.482 119.457 137.978 117.611 142.732 115.475C147.54 113.331 151.703 110.957 155.22 108.352C158.738 105.748 160.351 103.528 160.061 101.692C159.873 100.504 158.375 100.132 155.567 100.577ZM185.036 112.934L184.864 107.648C184.838 107.486 184.771 107.413 184.663 107.43C184.609 107.439 184.491 107.568 184.309 107.818C183.727 108.685 182.986 109.771 182.085 111.076C181.176 112.327 179.548 114.106 177.201 116.415C174.9 118.66 172.939 119.912 171.32 120.168C171.041 120.157 170.7 120.1 170.296 119.998C169.847 119.958 169.239 119.611 168.472 118.958C167.704 118.305 167.209 117.276 166.987 115.872C166.765 114.468 167.507 112.164 169.215 108.961C170.859 105.712 172.948 102.476 175.482 99.2524C178.008 95.9748 180.917 93.024 184.21 90.3998C187.557 87.7671 190.581 86.2372 193.281 85.8101C194.315 85.7018 195.24 86.3026 196.056 87.6125C196.511 86.9872 196.954 86.6403 197.386 86.572C197.818 86.5036 198.382 86.7465 199.079 87.3004C199.411 87.3032 199.765 87.4409 200.14 87.7136C200.507 87.9324 200.733 88.3117 200.818 88.8516C200.904 89.3916 200.62 90.0453 199.966 90.8129C199.055 92.3961 197.984 94.1983 196.754 96.2193C195.524 98.2403 194.649 99.707 194.129 100.619C193.601 101.478 193.063 102.449 192.514 103.532C191.591 105.393 191.157 106.846 191.211 107.889C196.3 104.372 204.065 97.3042 214.506 86.6862C215.052 86.9873 215.368 87.4078 215.453 87.9478C215.538 88.4877 215.395 88.9808 215.023 89.4271C214.651 89.8734 214.183 90.4178 213.621 91.0603C213.112 91.6942 212.064 92.9393 210.476 94.7956C208.888 96.6519 207.345 98.4456 205.848 100.177C204.396 101.846 202.704 103.746 200.772 105.878C198.886 107.948 197.177 109.74 195.646 111.255C191.958 114.883 189.601 116.778 188.575 116.94C187.549 117.102 186.769 116.893 186.235 116.314C185.7 115.734 185.3 114.608 185.036 112.934ZM176.236 110.839C176.884 110.736 178.646 109.102 181.521 105.935C184.45 102.76 187.19 99.6141 189.741 96.4985L193.649 91.8123C193.831 91.5621 193.917 91.4101 193.909 91.3561C193.892 91.2481 193.802 91.2069 193.64 91.2325C191.589 91.5571 189.104 93.1679 186.186 96.0647C183.259 98.9076 180.791 101.844 178.779 104.874C176.814 107.842 175.903 109.785 176.049 110.703C176.066 110.811 176.128 110.856 176.236 110.839ZM212.723 106.561C214.505 106.279 217.763 104.131 222.496 100.117C227.284 96.0938 231.585 92.1479 235.401 88.2788L241.205 82.4623C241.751 82.7634 242.067 83.1839 242.152 83.7239C242.238 84.2638 242.049 84.8195 241.586 85.3909C241.123 85.9623 240.451 86.7881 239.57 87.8683C238.743 88.94 237.114 90.8858 234.682 93.7058C232.25 96.5257 229.973 99.0998 227.851 101.428C222.291 107.566 218.072 111.332 215.193 112.729C214.264 113.152 213.286 113.446 212.261 113.608C211.235 113.77 210.412 113.817 209.792 113.749C209.173 113.681 208.469 113.433 207.682 113.004C206.09 112.038 204.97 109.503 204.32 105.4C204.141 104.266 204.354 102.461 204.958 99.9855C205.563 97.51 206.712 94.4502 208.404 90.8063C210.151 87.1538 212.249 83.4458 214.697 79.6823C217.2 75.9102 220.486 72.0143 224.554 67.9945C228.677 63.9662 233.194 60.5118 238.107 57.6314C238.874 57.2333 239.582 56.983 240.23 56.8805C240.878 56.778 241.519 56.981 242.153 57.4895C242.778 57.9441 243.246 58.4512 243.556 59.011L244.089 59.7569C244.285 60.9987 242.8 64.0287 239.633 68.8469C236.383 73.844 232.482 78.7505 227.931 83.5662C223.425 88.3193 219.18 92.45 215.197 95.9582C211.955 98.9063 210.539 101.676 210.949 104.268C211.214 105.942 211.805 106.706 212.723 106.561ZM217.36 88.6423C218.71 88.4287 222.261 84.4631 228.014 76.7454C233.821 69.0191 236.664 64.778 236.545 64.0221L236.438 63.8729L235.164 64.7387C232.646 67.0187 229.389 70.7441 225.392 75.9149C221.449 81.0771 218.783 85.0411 217.394 87.8067C217.221 88.1109 217.147 88.3439 217.173 88.5059C217.19 88.6139 217.252 88.6594 217.36 88.6423ZM250.609 80.9747C249.205 81.1968 247.06 83.0305 244.173 86.4759C241.278 89.8672 239.882 91.8869 239.985 92.5348C240.002 92.6428 240.091 92.684 240.253 92.6584C241.441 92.4704 243.581 90.776 246.672 87.575C249.817 84.3654 251.313 82.2747 251.159 81.3028C251.116 81.0328 250.933 80.9234 250.609 80.9747ZM237.458 109.622C233.3 110.279 230.82 108.07 230.017 102.995C229.513 99.8092 230.356 96.2167 232.546 92.2173C234.781 88.1555 237.609 84.6917 241.03 81.8259C244.442 78.9062 247.606 77.2157 250.522 76.7544C251.818 76.5494 253.087 76.8744 254.329 77.7295C255.626 78.576 256.351 79.4852 256.504 80.4571C256.786 82.239 255.838 84.4645 253.659 87.1338C251.471 89.7491 249.084 91.9807 246.499 93.8288C243.959 95.6143 242.23 96.5797 241.312 96.7249C240.448 96.8616 239.736 96.5591 239.176 95.8176C238.934 95.6897 238.624 95.6557 238.246 95.7155C237.868 95.7753 237.363 96.6025 236.729 98.197C236.088 99.7376 235.839 100.967 235.984 101.885C236.121 102.749 236.531 103.237 237.213 103.351C241.316 102.702 245.583 100.809 250.013 97.673C254.434 94.4829 260.405 89.1936 267.925 81.805C268.451 81.2791 269.239 80.4902 270.29 79.4384C271.396 78.378 272.043 77.7497 272.234 77.5536C272.78 77.8547 273.095 78.2752 273.181 78.8151C273.266 79.3551 273.1 79.8795 272.682 80.3883C270.41 83.5152 267.378 87.0941 263.588 91.1252C259.852 95.1477 255.443 99.1108 250.36 103.014C245.268 106.864 240.967 109.066 237.458 109.622Z" fill="#E85757"/>
<defs>
<filter id="filter0_d" x="0.106567" y="0.854492" width="402.095" height="74.51" filterUnits="userSpaceOnUse" color-interpolation-filters="sRGB">
<feFlood flood-opacity="0" result="BackgroundImageFix"/>
<feColorMatrix in="SourceAlpha" type="matrix" values="0 0 0 0 0 0 0 0 0 0 0 0 0 0 0 0 0 0 127 0"/>
<feOffset dy="2"/>
<feGaussianBlur stdDeviation="2"/>
<feColorMatrix type="matrix" values="0 0 0 0 0 0 0 0 0 0 0 0 0 0 0 0 0 0 0.09 0"/>
<feBlend mode="normal" in2="BackgroundImageFix" result="effect1_dropShadow"/>
<feBlend mode="normal" in="SourceGraphic" in2="effect1_dropShadow" result="shape"/>
</filter>
</defs>
</svg>
